# FFmpeg相关地址

- [官网 : http://www.ffmpeg.org/](http://www.ffmpeg.org/) 
- [官网 relese 包下载列表 : http://www.ffmpeg.org/releases/](http://www.ffmpeg.org/releases/) 
- [源码地址 : https://github.com/FFmpeg/FFmpeg](https://github.com/FFmpeg/FFmpeg)
- [iOS 平台编译脚本 : https://github.com/debugly/FFmpeg-iOS-build-script](https://github.com/debugly/FFmpeg-iOS-build-script)

# 编译 iOS 需要的库

如果前几年就开始使用 FFmpeg 的话，那时候还是 2.x 的版本，这个库一直在更新着，现在已经是 3.x 了，并且 API 有些改动，甚至跟 2.x 完全不一样，因此我们编译两个库，前面的几篇文章都使用 2.x 的 API，等流程搞清楚之后，在升级到 3.x 版本。

太低的版本已经不好编译了，所以选择了 2.6.6，还有最新版本 3.4。话不多说立马下载脚本编译吧：

[https://github.com/debugly/FFmpeg-iOS-build-script](https://github.com/debugly/FFmpeg-iOS-build-script)


直接把编译脚本下载下来，执行 build-ffmpeg.sh 脚本就可以了，我的环境是：

`Xcode 9.2，macOS 10.13.3`

编译是一个耗时枯燥，容易出现乱七八糟问题的事情，因此你也可以直接使用教程里我[编译好的库](https://github.com/debugly/StudyFFmpeg/tree/master/FFmpeg)。

先下载个 Mac 平台的，为日后封装 iOS 版播放器提供帮助，比如查看视频的相关信息，确定audio streamid，audio video streamid 等，这些都很有帮助！

# Mac 平台

官网已经为你编译好了 Mac 平台的库，可以直接下载把玩：[https://ffmpeg.org/download.html](https://ffmpeg.org/download.html)

也可以自行编译：[https://trac.ffmpeg.org/wiki/CompilationGuide/macOS](https://trac.ffmpeg.org/wiki/CompilationGuide/macOS)

下载完毕后加入到 ~/bin 目录，然后随便找个视频试一把：

- 使用 ffmpeg 转码

```c
ffmpeg -i ~/Desktop/ffmpeg-test/uglybetty.mp4 ~/Desktop/ffmpeg-test/ugly.mov
``` 
 
更多的参数含义可查看 [雷霄骅博客](http://blog.csdn.net/leixiaohua1020/article/details/12751349).
 
- 使用 ffprobe 查看视频格式信息
 
```c
ffprobe ugly.mov 
ffprobe version 3.3 Copyright (c) 2007-2017 the FFmpeg developers
built with llvm-gcc 4.2.1 (LLVM build 2336.11.00)
configuration: --prefix=/Volumes/Ramdisk/sw --enable-gpl --enable-pthreads --enable-version3 --enable-libspeex --enable-libvpx --disable-decoder=libvpx --enable-libmp3lame --enable-libtheora --enable-libvorbis --enable-libx264 --enable-avfilter --enable-libopencore_amrwb --enable-libopencore_amrnb --enable-filters --enable-libgsm --enable-libvidstab --enable-libx265 --disable-doc --arch=x86_64 --enable-runtime-cpudetect
libavutil      55. 58.100 / 55. 58.100
libavcodec     57. 89.100 / 57. 89.100
libavformat    57. 71.100 / 57. 71.100
libavdevice    57.  6.100 / 57.  6.100
libavfilter     6. 82.100 /  6. 82.100
libswscale      4.  6.100 /  4.  6.100
libswresample   2.  7.100 /  2.  7.100
libpostproc    54.  5.100 / 54.  5.100
Input #0, mov,mp4,m4a,3gp,3g2,mj2, from 'ugly.mov':
Metadata:
major_brand     : qt  
minor_version   : 512
compatible_brands: qt  
encoder         : Lavf57.71.100
Duration: 00:04:57.71, start: 0.000000, bitrate: 483 kb/s
Stream #0:0(eng): Video: h264 (High) (avc1 / 0x31637661), yuv420p, 608x336 [SAR 1:1 DAR 38:21], 347 kb/s, 24 fps, 24 tbr, 12288 tbn, 48 tbc (default)
Metadata:
  handler_name    : DataHandler
  encoder         : Lavc57.89.100 libx264
Stream #0:1(eng): Audio: aac (LC) (mp4a / 0x6134706D), 44100 Hz, stereo, fltp, 129 kb/s (default)
Metadata:
  handler_name    : DataHandler

```